<?xml version="1.0" encoding="UTF-8"?>
<svg version="1.1" xmlns="http://www.w3.org/2000/svg" width="3022" height="3004">
<path d="M0 0 C383.13 0 766.26 0 1161 0 C1161 575.85 1161 1151.7 1161 1745 C777.87 1745 394.74 1745 0 1745 C0 1169.15 0 593.3 0 0 Z " fill="#EBCB58" transform="translate(951,102)"/>
<path d="M0 0 C383.13 0 766.26 0 1161 0 C1161 575.85 1161 1151.7 1161 1745 C829.02 1745 497.04 1745 155 1745 C158.09095601 1743.45452199 160.31251801 1742.55087354 163.57470703 1741.75073242 C164.92860031 1741.41479317 164.92860031 1741.41479317 166.30984497 1741.07206726 C167.28267426 1740.83558975 168.25550354 1740.59911224 169.2578125 1740.35546875 C170.27487274 1740.10380447 171.29193298 1739.8521402 172.33981323 1739.59284973 C175.60045666 1738.78658748 178.86259206 1737.98658987 182.125 1737.1875 C185.33723482 1736.39840648 188.54908773 1735.60784039 191.76022339 1734.81428528 C193.7544378 1734.32169068 195.74927322 1733.8315989 197.74490356 1733.34477234 C202.76892189 1732.10609666 207.76396595 1730.79562892 212.74325466 1729.3870945 C225.98767955 1725.64388843 239.34369343 1722.34513563 252.6969974 1719.01683974 C256.32095354 1718.11306283 259.9442497 1717.20664678 263.56764221 1716.3006134 C270.51344856 1714.56427862 277.45990663 1712.8305655 284.40661079 1711.09782654 C289.9821861 1709.7070094 295.55744348 1708.31492395 301.13250732 1706.92205811 C360.73800047 1692.03066981 360.73800047 1692.03066981 389.84765625 1684.86328125 C390.72370325 1684.64755022 391.59975025 1684.43181919 392.50234413 1684.20955086 C400.1743375 1682.32084408 407.84720492 1680.43579104 415.52293682 1678.5623312 C417.52045939 1678.07452387 419.51771227 1677.58562805 421.51487732 1677.09635925 C423.81112437 1676.53419042 426.10788414 1675.9741068 428.40541077 1675.41719055 C433.557449 1674.15479364 438.67963889 1672.82104936 443.78431606 1671.37810802 C457.01536936 1667.63870602 470.35716258 1664.34177846 483.6969974 1661.01683974 C487.32095354 1660.11306283 490.9442497 1659.20664678 494.56764221 1658.3006134 C501.51344856 1656.56427862 508.45990663 1654.8305655 515.40661079 1653.09782654 C520.9821861 1651.7070094 526.55744348 1650.31492395 532.13250732 1648.92205811 C591.73800047 1634.03066981 591.73800047 1634.03066981 620.84765625 1626.86328125 C621.72370325 1626.64755022 622.59975025 1626.43181919 623.50234413 1626.20955086 C631.1743375 1624.32084408 638.84720492 1622.43579104 646.52293682 1620.5623312 C648.52045939 1620.07452387 650.51771227 1619.58562805 652.51487732 1619.09635925 C654.81112437 1618.53419042 657.10788414 1617.9741068 659.40541077 1617.41719055 C664.51393395 1616.16545607 669.59291635 1614.8446574 674.65359402 1613.41078854 C688.71318591 1609.43086322 702.90313869 1605.95545038 717.07959104 1602.42117238 C720.9893229 1601.44597147 724.89841721 1600.46822087 728.80760193 1599.49082947 C735.37401981 1597.84945779 741.94088646 1596.20989218 748.50805664 1594.5715332 C756.02927309 1592.69514773 763.54987789 1590.8163277 771.07012993 1588.93608099 C779.1687921 1586.91124454 787.26790461 1584.88821387 795.36714435 1582.86568904 C797.65772642 1582.29356849 799.94822815 1581.72112729 802.2387104 1581.14860725 C811.822786 1578.7534578 821.40935043 1576.36870463 831 1574 C832.25228771 1573.69035686 833.50457542 1573.38071373 834.79481125 1573.06168747 C838.30578501 1572.19620573 841.81838483 1571.33774069 845.33178711 1570.48217773 C846.36298203 1570.22774179 847.39417696 1569.97330584 848.45662022 1569.71115971 C849.39877353 1569.48348125 850.34092684 1569.25580278 851.31163025 1569.02122498 C852.12604552 1568.8225907 852.9404608 1568.62395643 853.77955532 1568.41930294 C856 1568 856 1568 860 1568 C859.99739563 1567.06392243 859.99479125 1566.12784487 859.99210796 1565.16340132 C859.75636731 1480.42883298 859.52063551 1395.69426455 859.14196777 1258.05476379 C859.13769584 1256.49941917 859.13342391 1254.94407455 859.12915198 1253.38872993 C859.03938861 1220.70651129 858.9497221 1188.02429239 858.86016677 1155.34207318 C858.81514736 1138.91278071 858.77010943 1122.48348829 858.72505396 1106.05419592 C858.7182597 1103.57665466 858.71146596 1101.09911339 858.70467224 1098.62157213 C858.60065927 1060.69168267 858.49626124 1022.76179432 858.39068604 984.83190918 C858.38843436 984.02294781 858.38618268 983.21398644 858.38386276 982.38051108 C858.34758125 969.34652562 858.3112659 956.31254026 858.27494604 943.2785549 C858.16970194 905.50978061 858.06472819 867.74100565 857.96137238 829.97222614 C857.95922457 829.18741022 857.95707677 828.4025943 857.95486389 827.59399607 C857.90759899 810.32157219 857.86046134 793.04914796 857.81344244 775.7767234 C857.79449114 768.81576694 857.77552171 761.85481053 857.75654602 754.89385414 C857.75447028 754.13223986 857.75239455 753.37062558 857.75025591 752.58593207 C857.68855444 729.94992242 857.62565814 707.31391636 857.56183419 684.6779126 C857.46367295 649.85714094 857.36759787 615.03636414 857.27539062 580.21557617 C857.27361169 579.54462685 857.27183276 578.87367752 857.26999993 578.1823964 C857.01357799 481.45480588 856.90889667 384.72789216 857 288 C855.88900148 287.80211549 855.88900148 287.80211549 854.75555855 287.60023332 C853.77615191 287.4242932 852.79674527 287.24835309 851.78765965 287.06708145 C850.82011897 286.89390845 849.85257829 286.72073544 848.8557182 286.54231477 C844.79727164 285.77159604 840.80943129 284.78682303 836.81030273 283.75683594 C835.96288513 283.54184952 835.11546753 283.3268631 834.24237061 283.10536194 C832.42077112 282.64270682 830.59960292 282.17835079 828.7788372 281.71242523 C825.86905512 280.96786064 822.95812476 280.22793867 820.04689026 279.48907471 C813.8427 277.91353442 807.64006065 276.33194125 801.4375 274.75 C793.31214792 272.67854722 785.18605905 270.61002183 777.05859375 268.546875 C776.07074764 268.29601135 775.08290154 268.04514771 774.0651207 267.78668213 C762.23498999 264.78576126 750.39818042 261.87584313 738.49095154 259.19512939 C729.27782825 257.10486788 720.12366736 254.79822926 710.96875 252.46875 C710.177941 252.26756813 709.387132 252.06638626 708.57235909 251.85910797 C702.05930001 250.20093025 695.5480935 248.53552148 689.03692627 246.86993408 C683.36920311 245.42041764 677.70080422 243.97358899 672.03125 242.53125 C671.23899521 242.32965775 670.44674042 242.12806549 669.63047791 241.92036438 C660.19394296 239.52296005 650.74810117 237.20591434 641.25 235.0625 C630.19281063 232.56516943 619.20473789 229.8218891 608.21875 227.03125 C607.34085312 226.80829758 606.46295624 226.58534515 605.55845642 226.3556366 C598.28622397 224.50756301 591.01580553 222.65239043 583.74542236 220.79705811 C577.42484575 219.18441282 571.10361152 217.57438423 564.78125 215.96875 C563.90240646 215.74551056 563.02356293 215.52227112 562.11808777 215.29226685 C551.06691243 212.48898262 540.0009171 209.80176568 528.87866211 207.29284668 C519.24415214 205.09978323 509.66949586 202.68435914 500.09375 200.25 C499.25943954 200.03794418 498.42512909 199.82588837 497.5655365 199.60740662 C490.67284855 197.85426705 483.78199297 196.0939654 476.89117432 194.33349609 C470.89702382 192.80241743 464.90220656 191.27399145 458.90625 189.75 C458.07103317 189.53766724 457.23581635 189.32533447 456.37528992 189.10656738 C446.60716012 186.62691173 436.83118432 184.21950891 427 182 C416.31942565 179.58873101 405.70480714 176.94759302 395.09375 174.25 C394.25962082 174.0379895 393.42549164 173.825979 392.56608582 173.60754395 C385.67321477 171.85435853 378.78217584 170.09401212 371.89117432 168.33349609 C365.89702382 166.80241743 359.90220396 165.27400166 353.90625 163.75 C353.07236252 163.53799957 352.23847504 163.32599915 351.37931824 163.10757446 C340.51808311 160.35035271 329.63899565 157.71994825 318.70825195 155.25024414 C309.71687759 153.2029708 300.77933138 150.96354942 291.84375 148.6875 C291.09751877 148.49746399 290.35128754 148.30742798 289.58244324 148.1116333 C283.44792413 146.54814846 277.3152793 144.97735946 271.18267822 143.40637207 C266.57559732 142.22645212 261.96785873 141.04915812 257.35932922 139.87490845 C255.27355098 139.34244493 253.18869103 138.80650612 251.10388184 138.27026367 C238.11085591 134.9572478 225.07882529 132.01819045 212 129 C185.93 122.4 159.86 115.8 133 109 C133 648.88 133 1188.76 133 1745 C89.11 1745 45.22 1745 0 1745 C0 1169.15 0 593.3 0 0 Z " fill="#031600" transform="translate(951,102)"/>
<path d="M0 0 C383.13 0 766.26 0 1161 0 C1161 575.85 1161 1151.7 1161 1745 C1138.56 1745 1116.12 1745 1093 1745 C1093 1188.95 1093 632.9 1093 60 C753.76 60 414.52 60 65 60 C65 616.05 65 1172.1 65 1745 C43.55 1745 22.1 1745 0 1745 C0 1169.15 0 593.3 0 0 Z " fill="#EACA58" transform="translate(951,102)"/>
<path d="M0 0 C25.74 0 51.48 0 78 0 C83.140625 18.17578126 83.140625 18.17578126 84.92837524 24.49676514 C87.64192068 34.09110103 90.35547419 43.68543463 93.06905556 53.27976036 C94.68406232 58.98989107 96.29906372 64.70002329 97.9140625 70.41015625 C98.24276211 71.57233547 98.57146172 72.73451469 98.91012192 73.93191147 C103.61937832 90.58241027 108.32836592 107.23298507 113.03717041 123.88361168 C114.96825594 130.71201166 116.89939101 137.54039764 118.83052826 144.368783 C120.68367701 150.92142786 122.53674372 157.47409592 124.38975334 164.02678013 C125.54369791 168.107328 126.69772046 172.1878538 127.85176468 176.26837349 C128.38638218 178.15875887 128.9209671 180.04915347 129.45551682 181.93955803 C130.1859154 184.5225554 130.91643005 187.10551992 131.64697266 189.68847656 C131.85767521 190.43371739 132.06837776 191.17895823 132.28546524 191.94678211 C133.51680277 196.29982862 134.75537398 200.65073365 136 205 C145.69384186 171.73924755 155.12232445 138.40828172 164.45847225 105.04574013 C165.68820364 100.6515152 166.91820488 96.25736588 168.1484375 91.86328125 C168.39161776 90.99466084 168.63479801 90.12604042 168.88534737 89.23109818 C174.78168513 68.174655 180.74774482 47.13806989 186.72865486 26.10551548 C187.30960499 24.06239729 187.89034642 22.01921989 188.47103882 19.97602844 C189.17241227 17.50879734 189.87437919 15.04173484 190.57705688 12.57487488 C190.8840451 11.49522964 191.19103333 10.41558441 191.50732422 9.30322266 C191.77326385 8.3691861 192.03920349 7.43514954 192.3132019 6.47280884 C192.9098821 4.32446848 193.45922748 2.16309007 194 0 C219.74 0 245.48 0 272 0 C272 102.3 272 204.6 272 310 C254.51 310 237.02 310 219 310 C216.95954575 307.95954575 217.84513412 303.67336242 217.84178162 300.86936951 C217.83684364 300.00688553 217.83190566 299.14440156 217.82681805 298.25578171 C217.81136366 295.34296785 217.80306106 292.43017616 217.79467773 289.51733398 C217.78510544 287.43839317 217.77509575 285.35945433 217.76467896 283.28051758 C217.7375535 277.61754682 217.71658544 271.95456767 217.69667697 266.29156756 C217.67486437 260.38048428 217.64745264 254.46942711 217.62062073 248.55836487 C217.57062972 237.35634197 217.52571475 226.15430463 217.48259836 214.9522534 C217.43328063 202.20275784 217.3783423 189.45328846 217.32291877 176.7038182 C217.20900039 150.46923655 217.10218293 124.2346298 217 98 C216.70622845 98.96526391 216.41245689 99.93052782 216.10978317 100.92504215 C213.29921908 110.15935714 210.48744312 119.39330242 207.6745708 128.62691456 C206.22955008 133.37051034 204.78491234 138.11422195 203.34124756 142.85823059 C196.73098179 164.5790584 190.09076093 186.28796449 183.25 207.9375 C182.92139732 208.97806612 182.59279465 210.01863224 182.25423431 211.09073067 C181.63393132 213.05498142 181.01349718 215.01919077 180.39287663 216.98334122 C175.75110296 231.68810816 171.29486112 246.44794933 166.89355469 261.22631836 C166.63656296 262.08522171 166.37957123 262.94412506 166.11479187 263.82905579 C165.63612144 265.4292127 165.16007719 267.03015836 164.68708801 268.63200378 C163.11257074 273.88742926 163.11257074 273.88742926 162 275 C160.37325222 275.09340434 158.74245949 275.11745171 157.11303711 275.11352539 C156.07203354 275.11344986 155.03102997 275.11337433 153.95848083 275.11329651 C152.8262056 275.10813522 151.69393036 275.10297394 150.52734375 275.09765625 C148.79817467 275.09553383 148.79817467 275.09553383 147.03407288 275.09336853 C143.33518936 275.08775005 139.63636536 275.07519442 135.9375 275.0625 C133.43684983 275.05748738 130.93619871 275.05292406 128.43554688 275.04882812 C122.29034412 275.03777462 116.14517631 275.02101852 110 275 C103.71948626 256.39330839 97.65186893 237.73793462 91.83914185 218.97900391 C89.70411089 212.08899471 87.55682035 205.20279793 85.41015625 198.31640625 C85.18987951 197.60947758 84.96960278 196.9025489 84.74265099 196.17419815 C78.74959787 176.94501645 72.6433111 157.75185291 66.53564453 138.55883789 C66.33319783 137.92254676 66.13075113 137.28625563 65.92216969 136.63068295 C64.98381791 133.68150544 64.04499876 130.73247908 63.10508728 127.78379822 C61.17553935 121.72416529 59.2645884 115.65901546 57.36961365 109.58850098 C57.14054935 108.85508106 56.91148505 108.12166115 56.67547941 107.36601639 C56.1168656 105.57738194 55.55841569 103.78869631 55 102 C54.99576806 103.06590079 54.99153612 104.13180159 54.98717594 105.2300024 C54.88413612 131.12553871 54.7754078 157.02104632 54.66066074 182.91653347 C54.60530341 195.43921904 54.55181736 207.96190747 54.50268555 220.48461914 C54.45987439 231.39512732 54.41360427 242.3056143 54.36312145 253.21608979 C54.33649571 258.99695777 54.31164211 264.77782148 54.29092598 270.55871391 C54.27139704 275.99309925 54.24726471 281.42744416 54.21950912 286.86179352 C54.21011878 288.86254965 54.2024507 290.86331468 54.19658089 292.86408424 C54.18835325 295.58317599 54.17408631 298.30216872 54.15821838 301.02122498 C54.15724028 301.82373843 54.15626217 302.62625189 54.15525442 303.45308393 C54.11412121 308.88587879 54.11412121 308.88587879 53 310 C51.37872577 310.09861598 49.75317632 310.12798767 48.12890625 310.12939453 C46.57224243 310.13412277 46.57224243 310.13412277 44.98413086 310.13894653 C43.29042358 310.13591019 43.29042358 310.13591019 41.5625 310.1328125 C39.83688843 310.13424759 39.83688843 310.13424759 38.07641602 310.13571167 C35.63850856 310.13639369 33.2005993 310.1345379 30.76269531 310.13037109 C27.01623482 310.12502317 23.26989423 310.13031539 19.5234375 310.13671875 C17.16145807 310.13605797 14.79947871 310.13477682 12.4375 310.1328125 C11.30836182 310.13483673 10.17922363 310.13686096 9.01586914 310.13894653 C7.97809326 310.13579437 6.94031738 310.13264221 5.87109375 310.12939453 C4.95255615 310.12859894 4.03401855 310.12780334 3.08764648 310.12698364 C1 310 1 310 0 309 C-0.09716679 307.35274836 -0.12371562 305.70129947 -0.12304783 304.05118465 C-0.12503888 302.97282437 -0.12702993 301.89446409 -0.12908131 300.78342623 C-0.12616847 299.58403604 -0.12325563 298.38464586 -0.12025452 297.14891052 C-0.12110894 295.88623842 -0.12196337 294.62356631 -0.12284368 293.32263142 C-0.12509102 289.80179314 -0.12106413 286.28098499 -0.11606562 282.76015055 C-0.1117647 278.96940332 -0.11320729 275.17865792 -0.1139679 271.38790894 C-0.11449336 264.81484509 -0.11134423 258.24179114 -0.10573006 251.66872978 C-0.09761808 242.16507644 -0.09500015 232.6614279 -0.09374207 223.15777148 C-0.09155107 207.74035079 -0.0848897 192.32293539 -0.07543945 176.90551758 C-0.06626657 161.9250491 -0.05918513 146.94458205 -0.05493164 131.96411133 C-0.05466892 131.04139242 -0.05440619 130.11867351 -0.05413551 129.16799342 C-0.05283051 124.53918604 -0.05156679 119.91037866 -0.05032361 115.28157127 C-0.03994951 76.85437616 -0.02151041 38.42719081 0 0 Z " fill="#E8C857" transform="translate(1421,2575)"/>
<path d="M0 0 C25.74 0 51.48 0 78 0 C87.13514024 31.45501899 96.0967278 62.94989728 104.91986847 94.49327087 C112.35100823 121.05875856 119.84686904 147.60462113 127.4375 174.125 C127.65796871 174.8953231 127.87843742 175.66564621 128.10558701 176.45931244 C130.73356163 185.64054524 133.3648099 194.82083542 136 204 C138.77803391 197.02237485 140.81084506 189.90659869 142.82421875 182.67578125 C143.20214316 181.32857925 143.5803981 179.98146993 143.95895386 178.63444519 C144.77548177 175.72657208 145.5898817 172.81811467 146.40261841 169.90917969 C147.70817108 165.23664091 149.01853598 160.56546046 150.32983398 155.89453125 C150.78652216 154.26761085 151.24320236 152.64068822 151.69987488 151.01376343 C151.92984854 150.19447735 152.1598222 149.37519127 152.39676476 148.53107834 C153.10981955 145.99010726 153.82240353 143.44900456 154.53486633 140.90786743 C159.92947069 121.66949187 165.36266559 102.44203159 170.79556656 83.21444321 C172.2762225 77.97388877 173.75641958 72.73320471 175.23633862 67.49244213 C176.41552777 63.31669129 177.59515198 59.14106464 178.77586365 54.96574402 C180.97248197 47.1956826 183.16340688 39.42411689 185.33802509 31.6478653 C186.36174425 27.98775938 187.38776584 24.32830053 188.41389275 20.66886902 C188.90337558 18.92052114 189.39165716 17.17183647 189.87869453 15.42280579 C190.5489266 13.01606413 191.22312216 10.61046612 191.89819336 8.20507812 C192.19684579 7.12626877 192.19684579 7.12626877 192.5015316 6.02566528 C193.88616475 1.11383525 193.88616475 1.11383525 195 0 C220.41 0 245.82 0 272 0 C272 102.3 272 204.6 272 310 C254.51 310 237.02 310 219 310 C218.67 239.38 218.34 168.76 218 96 C196.53872462 165.13074103 196.53872462 165.13074103 175.20703125 234.30078125 C174.5104541 236.56646973 173.81387695 238.8321582 173.09619141 241.16650391 C171.62748104 245.94778674 170.16779967 250.7317385 168.71240234 255.51708984 C168.15802742 257.33408638 168.15802742 257.33408638 167.592453 259.18778992 C166.88683815 261.50081626 166.1836926 263.81459774 165.48335266 266.12922668 C165.17133408 267.15030014 164.85931549 268.1713736 164.5378418 269.22338867 C164.12709663 270.57553719 164.12709663 270.57553719 163.70805359 271.95500183 C163 274 163 274 162 275 C160.37325222 275.09340434 158.74245949 275.11745171 157.11303711 275.11352539 C156.07203354 275.11344986 155.03102997 275.11337433 153.95848083 275.11329651 C152.8262056 275.10813522 151.69393036 275.10297394 150.52734375 275.09765625 C148.79817467 275.09553383 148.79817467 275.09553383 147.03407288 275.09336853 C143.33518936 275.08775005 139.63636536 275.07519442 135.9375 275.0625 C133.43684983 275.05748738 130.93619871 275.05292406 128.43554688 275.04882812 C122.29034412 275.03777462 116.14517631 275.02101852 110 275 C103.04584392 253.54392459 96.19635757 232.05630981 89.41192627 210.54602051 C88.47272406 207.56928206 87.53231751 204.59292477 86.59190178 201.61656952 C76.00204891 168.09634405 65.50733343 134.54615884 55 101 C54.99576806 102.07105453 54.99153612 103.14210905 54.98717594 104.24561977 C54.88413623 130.26633397 54.77540793 156.28701962 54.66066074 182.3076849 C54.60530335 194.89090468 54.55181729 207.47412729 54.50268555 220.05737305 C54.45987446 231.02061885 54.41360436 241.98384357 54.36312145 252.94705683 C54.33649566 258.75587052 54.31164206 264.56467996 54.29092598 270.37351799 C54.27139711 275.83416803 54.24726481 281.29477784 54.21950912 286.75539207 C54.21011874 288.76582359 54.20245068 290.77626395 54.19658089 292.78670883 C54.18835331 295.51893755 54.17408639 298.25106771 54.15821838 300.98326111 C54.15724028 301.78966551 54.15626217 302.59606992 54.15525442 303.42691082 C54.11412121 308.88587879 54.11412121 308.88587879 53 310 C51.37872577 310.09861598 49.75317632 310.12798767 48.12890625 310.12939453 C46.57224243 310.13412277 46.57224243 310.13412277 44.98413086 310.13894653 C43.29042358 310.13591019 43.29042358 310.13591019 41.5625 310.1328125 C39.83688843 310.13424759 39.83688843 310.13424759 38.07641602 310.13571167 C35.63850856 310.13639369 33.2005993 310.1345379 30.76269531 310.13037109 C27.01623482 310.12502317 23.26989423 310.13031539 19.5234375 310.13671875 C17.16145807 310.13605797 14.79947871 310.13477682 12.4375 310.1328125 C11.30836182 310.13483673 10.17922363 310.13686096 9.01586914 310.13894653 C7.97809326 310.13579437 6.94031738 310.13264221 5.87109375 310.12939453 C4.95255615 310.12859894 4.03401855 310.12780334 3.08764648 310.12698364 C1 310 1 310 0 309 C-0.09716679 307.35274836 -0.12371562 305.70129947 -0.12304783 304.05118465 C-0.12503888 302.97282437 -0.12702993 301.89446409 -0.12908131 300.78342623 C-0.12616847 299.58403604 -0.12325563 298.38464586 -0.12025452 297.14891052 C-0.12110894 295.88623842 -0.12196337 294.62356631 -0.12284368 293.32263142 C-0.12509102 289.80179314 -0.12106413 286.28098499 -0.11606562 282.76015055 C-0.1117647 278.96940332 -0.11320729 275.17865792 -0.1139679 271.38790894 C-0.11449336 264.81484509 -0.11134423 258.24179114 -0.10573006 251.66872978 C-0.09761808 242.16507644 -0.09500015 232.6614279 -0.09374207 223.15777148 C-0.09155107 207.74035079 -0.0848897 192.32293539 -0.07543945 176.90551758 C-0.06626657 161.9250491 -0.05918513 146.94458205 -0.05493164 131.96411133 C-0.05466892 131.04139242 -0.05440619 130.11867351 -0.05413551 129.16799342 C-0.05283051 124.53918604 -0.05156679 119.91037866 -0.05032361 115.28157127 C-0.03994951 76.85437616 -0.02151041 38.42719081 0 0 Z " fill="#E8C957" transform="translate(2161,2575)"/>
<path d="M0 0 C172.74333333 0 172.74333333 0 197.37109375 24.34375 C215.73973773 43.92044982 222.4480638 69.66492433 222 96 C220.98103518 121.85440407 212.85371635 146.56100161 194 165 C184.63026601 173.19679232 173.45955443 180.12986523 161 182 C161.37584229 182.65145996 161.75168457 183.30291992 162.13891602 183.97412109 C163.28280562 185.95686307 164.42668478 187.93961107 165.57055664 189.92236328 C166.91732423 192.25671642 168.26415607 194.59103235 169.61108398 196.92529297 C173.02377298 202.83978489 176.43539406 208.75488441 179.84375 214.671875 C186.44040507 226.12081503 193.06362175 237.55335474 199.73071289 248.96142578 C204.640059 257.36779313 209.5076623 265.79784544 214.36157227 274.23632812 C217.56929342 279.80765544 220.79584526 285.36696681 224.05859375 290.90625 C224.70957031 292.01355469 225.36054688 293.12085937 226.03125 294.26171875 C227.27884348 296.38109374 228.53000884 298.49837113 229.78515625 300.61328125 C230.33945313 301.55558594 230.89375 302.49789062 231.46484375 303.46875 C231.955896 304.29826172 232.44694824 305.12777344 232.95288086 305.98242188 C234 308 234 308 234 310 C210.57 310 187.14 310 163 310 C158.05 301.09 153.1 292.18 148 283 C143.15938267 274.43572709 143.15938267 274.43572709 138.3125 265.875 C134.6731549 259.43615867 131.08574598 252.96879921 127.5 246.5 C123.88828629 239.98580197 120.27397787 233.47340641 116.6171875 226.984375 C116.08013184 226.02869629 115.54307617 225.07301758 114.98974609 224.08837891 C113.91873286 222.20576628 112.83059957 220.33278435 111.72509766 218.47021484 C108.30251845 212.64844962 105.68742721 206.94532624 103.54101562 200.53466797 C101.32477778 195.70345575 101.32477778 195.70345575 94 187 C76.675 186.505 76.675 186.505 59 186 C59 226.92 59 267.84 59 310 C39.53 310 20.06 310 0 310 C0 207.7 0 105.4 0 0 Z M59 57 C59 80.76 59 104.52 59 129 C72.4169589 129.11651664 72.4169589 129.11651664 85.83398438 129.1953125 C91.31355457 129.21914098 96.79285512 129.24720257 102.2722168 129.30175781 C106.69428635 129.3455061 111.11606638 129.36919773 115.5383358 129.37950897 C117.21789794 129.38684871 118.89744584 129.40118034 120.57688332 129.42292023 C131.97817576 129.56451694 142.33577822 129.31791986 151.375 121.5 C159.55469489 112.53088897 161.33465864 101.08082757 161.21484375 89.37890625 C160.6272588 80.13779747 157.64272706 70.56418469 150.921875 63.95703125 C144.14525612 58.36747316 137.81216965 56.68342859 129.04516602 56.77294922 C127.90246498 56.77251114 127.90246498 56.77251114 126.73667908 56.77206421 C124.24230176 56.77344706 121.74823078 56.78895845 119.25390625 56.8046875 C117.51513329 56.80842135 115.77635822 56.81126657 114.0375824 56.81326294 C109.47883209 56.82087008 104.92021083 56.84049328 100.36151123 56.8626709 C94.88234371 56.88680557 89.40313286 56.89592422 83.92392731 56.90757751 C75.615862 56.92691954 67.30807942 56.96526239 59 57 Z " fill="#E9C957" transform="translate(2531,2052)"/>
<path d="M0 0 C19.18537215 -0.0702712 38.37071796 -0.12307654 57.5561924 -0.15543652 C66.46556542 -0.17086526 75.37485819 -0.19187787 84.28417969 -0.22631836 C92.05507063 -0.25634358 99.82590341 -0.27560397 107.59685075 -0.28226548 C111.70650271 -0.28615565 115.81598837 -0.29521347 119.9255867 -0.31719017 C123.804678 -0.3377634 127.6835367 -0.3437924 131.56267738 -0.33932304 C132.97586016 -0.34013904 134.38905186 -0.34597942 135.80218697 -0.35761642 C158.91421987 -0.53838184 180.07412215 6.9222316 196.98828125 22.8671875 C216.11673184 43.14705939 222.0658919 69.94196092 222 97 C221.32733256 119.53435915 214.47643817 142.17010907 199 159 C197.95199219 160.16789062 197.95199219 160.16789062 196.8828125 161.359375 C187.41110794 171.40410083 175.1948174 178.07721645 162 182 C171.07360082 198.69943911 180.3194637 215.29350215 190.0378418 231.62719727 C194.20581914 238.63654968 198.30506236 245.68329498 202.375 252.75 C202.99705322 253.82991211 203.61910645 254.90982422 204.26000977 256.02246094 C206.83511235 260.49565317 209.4079312 264.97015646 211.98046875 269.44482422 C213.94421663 272.85968147 215.90937267 276.27372429 217.875 279.6875 C218.49818115 280.77135986 219.1213623 281.85521973 219.76342773 282.97192383 C223.5951179 289.61963224 227.47647308 296.23284279 231.56396484 302.72729492 C233.22341839 305.41769518 234 306.76468929 234 310 C224.97710984 310.20879841 215.95505438 310.36857376 206.93027306 310.46630955 C202.73926682 310.51322647 198.54991639 310.576821 194.35986328 310.67895508 C190.31374568 310.77696013 186.26921704 310.83059901 182.22200394 310.85389519 C180.6804464 310.87048864 179.13897321 310.90289655 177.59809494 310.95157051 C165.55170421 311.316861 165.55170421 311.316861 161.78889465 308.12353516 C160.21324547 305.80859791 159.07763555 303.57962384 158 301 C157.44948975 300.05624512 156.89897949 299.11249023 156.33178711 298.14013672 C155.9013208 297.32818848 155.47085449 296.51624023 155.02734375 295.6796875 C154.52734863 294.74471436 154.02735352 293.80974121 153.51220703 292.84643555 C152.99255371 291.86586182 152.47290039 290.88528809 151.9375 289.875 C147.58966965 281.75950799 143.17589076 273.69095973 138.625 265.6875 C133.86816647 257.31807354 129.16570153 248.92058554 124.5 240.5 C120.85599281 233.9255433 117.20773396 227.35399225 113.51171875 220.80859375 C112.95919434 219.82713379 112.40666992 218.84567383 111.83740234 217.83447266 C110.74670948 215.91938513 109.63916159 214.013789 108.51416016 212.11865234 C105.46374651 206.92917865 103.12635586 202.08593783 101.57299805 196.25463867 C99.99717362 192.48706957 99.99717362 192.48706957 94 186 C76.675 185.505 76.675 185.505 59 185 C59 226.25 59 267.5 59 310 C39.86 310 20.72 310 1 310 C0 309 0 309 -0.1241985 306.89448446 C-0.12381878 305.95619552 -0.12343906 305.01790659 -0.12304783 304.05118465 C-0.12503888 302.97282437 -0.12702993 301.89446409 -0.12908131 300.78342623 C-0.12616847 299.58403604 -0.12325563 298.38464586 -0.12025452 297.14891052 C-0.12110894 295.88623842 -0.12196337 294.62356631 -0.12284368 293.32263142 C-0.12509102 289.80179314 -0.12106413 286.28098499 -0.11606562 282.76015055 C-0.1117647 278.96940332 -0.11320729 275.17865792 -0.1139679 271.38790894 C-0.11449336 264.81484509 -0.11134423 258.24179114 -0.10573006 251.66872978 C-0.09761808 242.16507644 -0.09500015 232.6614279 -0.09374207 223.15777148 C-0.09155107 207.74035079 -0.0848897 192.32293539 -0.07543945 176.90551758 C-0.06626657 161.9250491 -0.05918513 146.94458205 -0.05493164 131.96411133 C-0.05466892 131.04139242 -0.05440619 130.11867351 -0.05413551 129.16799342 C-0.05283051 124.53918604 -0.05156679 119.91037866 -0.05032361 115.28157127 C-0.03994951 76.85437715 -0.0223299 38.42718892 0 0 Z M59 56 C59 79.76 59 103.52 59 128 C72.97455932 128.14560079 72.97455932 128.14560079 86.94921875 128.24414062 C92.65502375 128.27394835 98.36042487 128.3090848 104.06591797 128.37719727 C108.6695458 128.43180724 113.2727401 128.46148124 117.87666702 128.47438622 C119.6268559 128.48357437 121.37702295 128.50151622 123.1270256 128.52865028 C133.85112275 128.68820897 142.63315533 128.6443477 151.08944702 121.1476593 C158.68006179 113.61185721 161.10939464 102.75636242 161.25 92.375 C161.14799017 81.53928911 158.77974156 71.93214854 151.07421875 64.0234375 C142.96927378 56.60535227 135.10903779 55.86786625 124.390625 55.88647461 C123.67744614 55.88632858 122.96426727 55.88618256 122.22947693 55.8860321 C119.90295224 55.88672147 117.57651047 55.89446747 115.25 55.90234375 C113.6247563 55.90421141 111.99951204 55.90563367 110.37426758 55.90663147 C106.11971451 55.91042927 101.86519618 55.92023587 97.61065674 55.93133545 C92.49354266 55.9434185 87.3764169 55.94796485 82.2592926 55.95378876 C74.50617099 55.96344935 66.75312544 55.98262497 59 56 Z " fill="#E9C957" transform="translate(877,2575)"/>
<path d="M0 0 C167.72033898 0 167.72033898 0 192 20 C192.97582031 20.76183594 193.95164062 21.52367188 194.95703125 22.30859375 C198.20172005 25.02505357 200.59275598 28.10103418 203 31.5625 C203.43078857 32.17818848 203.86157715 32.79387695 204.30541992 33.42822266 C216.53571805 51.26493538 221.41430351 71.28863979 221.3125 92.75 C221.30512817 94.59489014 221.30512817 94.59489014 221.29760742 96.47705078 C220.96928238 122.01232062 212.50796218 145.03900711 194.8125 163.6875 C186.67974368 171.55103405 172.93940816 182 161 182 C167.88122406 194.7129868 175.01496121 207.25756876 182.328125 219.7265625 C186.08448904 226.13246888 189.79523773 232.56415067 193.5 239 C198.30826579 247.3481314 203.13930327 255.68228895 208 264 C213.05601425 272.65837022 218.10097683 281.3230321 223.125 290 C223.75277344 291.08023438 224.38054687 292.16046875 225.02734375 293.2734375 C225.61902344 294.29695313 226.21070313 295.32046875 226.8203125 296.375 C227.33867676 297.26960938 227.85704102 298.16421875 228.39111328 299.0859375 C230.37075292 302.67151849 232.1930852 306.3250464 234 310 C224.84680246 310.23198355 215.69462017 310.40951619 206.53912163 310.51812172 C202.28739286 310.57025659 198.0376785 310.64092062 193.78710938 310.75439453 C189.68260154 310.86327989 185.58002674 310.92288408 181.47418594 310.94877243 C179.91024452 310.967212 178.34640596 311.00322667 176.78329086 311.05730057 C172.05641081 311.21427522 167.60969372 311.22563334 163 310 C159.89404911 307.06346578 158.50373002 303.95210791 157 300 C156.42443359 298.9989624 155.84886719 297.9979248 155.25585938 296.96655273 C154.55686523 295.71273804 154.55686523 295.71273804 153.84375 294.43359375 C153.30363281 293.46679688 152.76351562 292.5 152.20703125 291.50390625 C151.36205078 289.98603516 151.36205078 289.98603516 150.5 288.4375 C149.26045803 286.21742482 148.0208735 283.99737341 146.78125 281.77734375 C146.15347656 280.65183105 145.52570313 279.52631836 144.87890625 278.36669922 C141.92534758 273.0743949 138.96241809 267.78734853 136 262.5 C134.83328371 260.41669445 133.66661716 258.33336106 132.5 256.25 C131.9225 255.21875 131.345 254.1875 130.75 253.125 C125.5 243.75 125.5 243.75 123.74829102 240.62182617 C122.58745987 238.54899447 121.42649094 236.47623992 120.26538086 234.40356445 C117.25826713 229.03519693 114.25392178 223.66530664 111.25390625 218.29296875 C110.63580078 217.18695312 110.01769531 216.0809375 109.38085938 214.94140625 C108.21328792 212.85206786 107.04654903 210.76226387 105.88085938 208.671875 C102.44564858 202.52726026 98.91993518 196.4476801 95.30053711 190.40942383 C94 188 94 188 94 186 C82.45 186 70.9 186 59 186 C59 226.92 59 267.84 59 310 C39.53 310 20.06 310 0 310 C0 207.7 0 105.4 0 0 Z M59 57 C59 80.76 59 104.52 59 129 C72.4658016 129.08734788 72.4658016 129.08734788 85.93164062 129.14648438 C91.42888138 129.16437447 96.92597133 129.18547263 102.4230957 129.22631836 C106.85811065 129.25906365 111.29296372 129.27688484 115.72809029 129.28463173 C117.41486723 129.29014813 119.10163594 129.30091998 120.78834343 129.31719017 C137.28777488 129.48249858 137.28777488 129.48249858 151.14453125 121.19140625 C159.09258238 111.80433954 161.35950928 100.33886155 160.83984375 88.28515625 C159.73655502 78.41982695 156.7637916 69.31364578 149.12458801 62.58270264 C139.98503114 55.77422934 128.90056635 56.46933181 118.08203125 56.609375 C116.37140062 56.61685051 114.66076133 56.62253724 112.95011902 56.62652588 C108.48330357 56.64167931 104.01702194 56.68087004 99.55041504 56.7253418 C94.17218809 56.77377917 88.79378103 56.79187764 83.41539764 56.81515503 C75.27656236 56.85372928 67.13889456 56.93045331 59 57 Z " fill="#E9C957" transform="translate(826,2052)"/>
<path d="M0 0 C118.92317073 0 118.92317073 0 132.5 2.25 C133.28205811 2.37785889 134.06411621 2.50571777 134.86987305 2.63745117 C163.17170233 7.55640891 189.06893174 20.46615356 206.1418457 44.11547852 C222.38936817 67.65744625 224.47636458 94.47856478 224.43359375 122.20703125 C224.43816648 124.82525262 224.44347526 127.4434728 224.44947815 130.06169128 C224.45944303 135.52562468 224.45627577 140.98943924 224.44604492 146.45336914 C224.43458158 152.71269015 224.44863288 158.97158174 224.4754414 165.23084623 C224.50052216 171.32147019 224.5027336 177.41190041 224.49632454 183.5025692 C224.49617275 186.06221925 224.50209677 188.62187814 224.51461601 191.18149757 C224.63877126 220.72197746 220.23264629 250.11529436 200 273 C199.54496094 273.59683594 199.08992188 274.19367187 198.62109375 274.80859375 C182.93834031 295.07913775 154.55173107 305.02494398 130.17578125 308.4921875 C87.0983053 313.73079543 43.39483779 310 0 310 C0 207.7 0 105.4 0 0 Z M59 57 C59 121.68 59 186.36 59 253 C108.006938 256.67606423 108.006938 256.67606423 150.9296875 237.3203125 C160.56982272 226.51608548 163.46874695 213.69995023 163.40405273 199.56274414 C163.41434761 197.95283852 163.41434761 197.95283852 163.42485046 196.31040955 C163.44298513 192.80185293 163.43930013 189.29374916 163.43359375 185.78515625 C163.43816173 183.32238115 163.44346913 180.85960733 163.44947815 178.39683533 C163.45838297 173.25026247 163.4560158 168.10384501 163.44604492 162.95727539 C163.43455537 156.38962148 163.45478081 149.82250525 163.48396206 143.25492191 C163.502381 138.17342266 163.50202027 133.09205094 163.49632454 128.01052666 C163.49617204 125.59022708 163.50215666 123.16991847 163.51461601 120.74965096 C163.59481659 102.61975773 162.87164232 86.46505655 150.0625 72.375 C126.73372251 50.20878617 86.50536437 57 59 57 Z " fill="#E9C957" transform="translate(1705,2052)"/>
<path d="M0 0 C21.84672034 19.97788788 32.1887224 48.56097893 33.87482071 77.60794449 C34.23855717 85.88782005 34.13385054 94.19066899 34.13671875 102.4765625 C34.13994 104.67930624 34.1433047 106.88204978 34.14680481 109.08479309 C34.15276523 113.68649796 34.15464791 118.28818413 34.15405273 122.88989258 C34.15395131 128.73830956 34.16759743 134.58660462 34.18482494 140.43499279 C34.19603421 144.98137444 34.19796922 149.52772744 34.19744301 154.07412148 C34.19860995 156.22792289 34.20295788 158.38172538 34.21077538 160.53551292 C34.32729103 195.95029019 29.2355343 229.70893567 3.6484375 256.06640625 C-10.55455266 270.26939641 -27.52943963 279.77114212 -47.03125 284.74609375 C-48.18882812 285.04644531 -49.34640625 285.34679688 -50.5390625 285.65625 C-83.09589945 292.72667419 -117.95977414 287.49921707 -146.23291016 269.92382812 C-150.83248493 266.91156249 -154.97119505 263.44007817 -159.03125 259.74609375 C-159.73507812 259.12347656 -160.43890625 258.50085937 -161.1640625 257.859375 C-183.56862101 236.90452321 -191.84788469 205.33646494 -193.03125 175.74609375 C-193.2000435 168.778659 -193.17257656 161.80884012 -193.1640625 154.83984375 C-193.16473846 152.86079903 -193.16571089 150.8817544 -193.16696167 148.90270996 C-193.16842493 144.78132324 -193.16632865 140.65995838 -193.16162109 136.53857422 C-193.15592468 131.30102548 -193.15921109 126.06352801 -193.16519356 120.82598114 C-193.16883647 116.74720892 -193.16764359 112.66844851 -193.16506577 108.5896759 C-193.16440678 106.66030369 -193.1651882 104.73093034 -193.16754532 102.80155945 C-193.19631995 72.64292786 -193.19631995 72.64292786 -190.34375 58.24609375 C-190.17004883 57.36300537 -189.99634766 56.47991699 -189.81738281 55.57006836 C-186.03031093 37.40426556 -178.07133079 21.88560039 -166.03125 7.74609375 C-165.39960937 6.91980469 -164.76796875 6.09351562 -164.1171875 5.2421875 C-160.3533541 0.7382745 -155.6463869 -2.66228761 -151.03125 -6.25390625 C-150.2578125 -6.86621094 -149.484375 -7.47851562 -148.6875 -8.109375 C-106.55271625 -39.63831421 -38.70384573 -34.4405079 0 0 Z M-118.546875 45.80859375 C-121.44074507 49.58585574 -123.82853465 53.53220351 -126.03125 57.74609375 C-126.42441406 58.49375 -126.81757812 59.24140625 -127.22265625 60.01171875 C-133.53860159 73.7156887 -132.33350335 90.74847047 -132.296875 105.49609375 C-132.2982274 107.44889372 -132.30017267 109.40169335 -132.30267334 111.35449219 C-132.30559762 115.41865286 -132.30141485 119.48272477 -132.29199219 123.546875 C-132.28059938 128.70700146 -132.28717347 133.86691972 -132.29913712 139.02703857 C-132.30642922 143.05095942 -132.3040344 147.07483244 -132.29888153 151.09875488 C-132.29756526 152.99938991 -132.29912009 154.90002956 -132.30384064 156.80065918 C-132.56065907 186.81356166 -132.56065907 186.81356166 -119.03125 212.74609375 C-118.31582031 213.63361328 -118.31582031 213.63361328 -117.5859375 214.5390625 C-109.99179303 223.18264904 -97.94280768 227.93354249 -86.65087891 228.96313477 C-69.53807252 229.80511665 -56.90321791 226.42042404 -42.84375 216.49609375 C-31.74278573 205.64181757 -27.16818252 191.40513119 -26.89080811 176.05737305 C-26.87890896 174.31171313 -26.87230853 172.5660116 -26.87011719 170.8203125 C-26.86515228 169.85973434 -26.86018738 168.89915619 -26.85507202 167.9094696 C-26.84054233 164.75083684 -26.83366243 161.59225436 -26.828125 158.43359375 C-26.82529762 157.34661194 -26.82247025 156.25963013 -26.81955719 155.13970947 C-26.80459884 149.38301351 -26.79534923 143.62634237 -26.79101562 137.86962891 C-26.78554778 131.96364851 -26.7615456 126.0579006 -26.73304367 120.1519928 C-26.71428967 115.57565681 -26.70920486 110.9993753 -26.70767975 106.42300415 C-26.70467949 104.24800349 -26.69674147 102.07300316 -26.68349457 99.89804077 C-26.56478146 78.90206661 -27.42394355 59.82854216 -42.828125 43.86328125 C-53.56353732 33.54662615 -67.65150992 30.37025028 -82.24609375 30.5390625 C-95.66220094 31.27286403 -109.30432914 35.55943398 -118.546875 45.80859375 Z " fill="#E9C957" transform="translate(2168.03125,2077.25390625)"/>
<path d="M0 0 C29.62713617 -0.57561293 60.71145048 7.08053339 82.64819336 27.96801758 C84.04418079 29.33785847 85.41893096 30.72923703 86.79296875 32.12109375 C87.60507813 32.93449219 88.4171875 33.74789062 89.25390625 34.5859375 C108.26307952 54.6007155 117.08216816 83.02803694 117.09936523 110.20996094 C117.10768875 111.35334427 117.11601227 112.4967276 117.12458801 113.67475891 C117.14850832 117.42253115 117.15744092 121.17012846 117.1640625 124.91796875 C117.17304682 127.55617315 117.18216894 130.19437709 117.19142151 132.83258057 C117.20872367 138.35665527 117.21563513 143.88068635 117.21850586 149.40478516 C117.222122 155.72361778 117.25189729 162.04195906 117.29391044 168.36064219 C117.32902056 173.83978626 117.3440613 179.31877098 117.34475189 184.79802632 C117.34553192 188.04613276 117.35617093 191.2936369 117.38274956 194.54164886 C117.6463733 229.56149832 110.11535612 261.57760579 84.98046875 287.12109375 C62.14971691 309.21719269 31.2231345 316.69214934 0.33520508 316.61083984 C-18.2400447 316.23153941 -35.68665959 312.68721239 -52.20703125 304.12109375 C-53.21765625 303.62609375 -54.22828125 303.13109375 -55.26953125 302.62109375 C-78.39703902 290.80036756 -94.63492604 269.24054269 -103.20703125 245.12109375 C-104.95827614 239.54637949 -106.24303396 233.88330412 -107.20703125 228.12109375 C-107.37334549 227.17627136 -107.53965973 226.23144897 -107.71101379 225.25799561 C-109.60700239 213.05865763 -109.51633006 200.90785812 -109.5078125 188.5859375 C-109.51171042 186.21627224 -109.51604729 183.84660767 -109.52079773 181.47694397 C-109.5282228 176.52733082 -109.52799667 171.57778905 -109.52270508 166.62817383 C-109.51692899 160.34743646 -109.53381501 154.06699578 -109.55704975 147.78630733 C-109.5719289 142.8949061 -109.57263949 138.00357388 -109.56954002 133.11215401 C-109.57004659 130.79977394 -109.57515624 128.48738931 -109.58535194 126.17503166 C-109.7243844 90.22666103 -103.81813658 58.71609746 -78.6015625 31.5234375 C-57.34325857 10.19577532 -29.60742281 1.11794167 0 0 Z M-36.359375 75.77734375 C-49.02155271 91.83930279 -48.66505051 109.94898902 -48.60546875 129.4375 C-48.60749401 131.78531484 -48.6104092 134.13312906 -48.61416626 136.48094177 C-48.61856742 141.38017824 -48.6122294 146.27924965 -48.59814453 151.1784668 C-48.58104473 157.42762915 -48.59091331 163.67640507 -48.60886192 169.92555332 C-48.61975147 174.76684938 -48.61622991 179.60805525 -48.60847855 184.44935417 C-48.60649131 186.7524209 -48.60888329 189.05549609 -48.61591721 191.35855293 C-48.66287451 211.04763613 -47.72771779 229.07894952 -33.33203125 244.15625 C-20.43542529 256.08086911 -5.40072351 257.75692998 11.39501953 257.24853516 C23.70805939 256.59414635 35.49829061 250.69379293 43.91015625 241.68359375 C52.57674942 229.88839641 56.10403766 217.6022385 56.06762695 203.1003418 C56.07529335 201.50331421 56.07529335 201.50331421 56.08311462 199.87402344 C56.09694131 196.3768949 56.0960589 192.87996501 56.09375 189.3828125 C56.09764101 186.93577502 56.10197651 184.48873821 56.10673523 182.04170227 C56.11418279 176.9201132 56.11391696 171.79859308 56.10864258 166.67700195 C56.10285306 160.13728091 56.11977392 153.59784355 56.14298725 147.05816936 C56.15777178 142.00588857 56.15858981 136.95367533 56.15547752 131.90137672 C56.15598846 129.49141694 56.16118316 127.08145315 56.17128944 124.67151451 C56.18372668 121.29083595 56.17681813 117.9107002 56.1652832 114.5300293 C56.17292694 113.54938004 56.18057068 112.56873077 56.18844604 111.55836487 C56.08339645 97.51852013 51.63153561 83.2746862 41.82421875 72.9296875 C30.18731405 62.56836658 16.03943346 58.68587501 0.71875 58.84765625 C-13.75173722 59.85555088 -26.31254268 65.04971992 -36.359375 75.77734375 Z " fill="#E9C957" transform="translate(2357.20703125,2048.87890625)"/>
<path d="M0 0 C0.80251346 0.00291284 1.60502691 0.00582568 2.43185896 0.00882679 C3.27800872 0.00797237 4.12415848 0.00711794 4.99594915 0.00623763 C7.85350793 0.00458022 10.71100901 0.01010843 13.56856245 0.01555592 C15.60809287 0.01583776 17.64762339 0.01568012 19.68715376 0.01511341 C25.2427113 0.01482532 30.79824745 0.02072393 36.3538 0.02768737 C42.15275761 0.03391897 47.95171565 0.03452455 53.7506761 0.03571278 C64.7402222 0.03882667 75.72975841 0.04704083 86.71930015 0.05706227 C99.22694378 0.06822162 111.73458788 0.07373341 124.24223524 0.0787577 C149.97919156 0.0892234 175.71613431 0.10756959 201.45308393 0.12908131 C201.45308393 18.93908131 201.45308393 37.74908131 201.45308393 57.12908131 C152.28308393 57.12908131 103.11308393 57.12908131 52.45308393 57.12908131 C52.45308393 80.55908131 52.45308393 103.98908131 52.45308393 128.12908131 C94.03308393 128.12908131 135.61308393 128.12908131 178.45308393 128.12908131 C178.45308393 146.60908131 178.45308393 165.08908131 178.45308393 184.12908131 C177.45308393 185.12908131 177.45308393 185.12908131 175.37786478 185.25212914 C174.45699359 185.25120734 173.5361224 185.25028555 172.58734602 185.24933583 C171.5342021 185.25071049 170.48105818 185.25208515 169.3960008 185.25350147 C167.64813024 185.24810856 167.64813024 185.24810856 165.86494917 185.2426067 C164.03593565 185.24282574 164.03593565 185.24282574 162.16997236 185.2430492 C158.81680882 185.24247024 155.46370619 185.23744099 152.11055344 185.23047525 C148.60982831 185.22424114 145.10910245 185.22363787 141.60837263 185.22244984 C134.97498738 185.21933669 128.34161853 185.21112353 121.70824051 185.20110035 C113.41811334 185.18884462 105.12798352 185.18335663 96.83784956 185.17790943 C82.04291489 185.1681581 67.24801604 185.14812785 52.45308393 185.12908131 C52.45308393 207.56908131 52.45308393 230.00908131 52.45308393 253.12908131 C101.62308393 253.12908131 150.79308393 253.12908131 201.45308393 253.12908131 C201.45308393 271.93908131 201.45308393 290.74908131 201.45308393 310.12908131 C132.81308393 310.12908131 64.17308393 310.12908131 -6.54691607 310.12908131 C-6.58724742 232.62567219 -6.58724742 232.62567219 -6.59574419 200.33806568 C-6.59770221 192.94703376 -6.59972273 185.55600186 -6.60184771 178.16496998 C-6.60224333 176.77535924 -6.60224333 176.77535924 -6.60264695 175.35767555 C-6.60700197 160.38123602 -6.61488892 145.4048003 -6.62406886 130.42836303 C-6.63340451 115.07035991 -6.63897149 99.71235879 -6.64100456 84.35435295 C-6.64237998 74.86973278 -6.64673155 65.3851234 -6.65483253 55.90050655 C-6.6600989 49.40570889 -6.66172061 42.91091684 -6.66041745 36.4161172 C-6.65977389 32.66316708 -6.66079351 28.91023588 -6.66612154 25.15728909 C-6.67184242 21.09823707 -6.66991727 17.03922588 -6.66717058 12.98017079 C-6.67008343 11.7807806 -6.67299627 10.58139042 -6.67599738 9.34565508 C-6.67400633 8.2672948 -6.67201528 7.18893452 -6.6699639 6.07789665 C-6.67034362 5.13960772 -6.67072334 4.20131878 -6.67111456 3.23459685 C-6.41812751 -1.05424878 -3.64454847 0.01003587 0 0 Z " fill="#E8C857" transform="translate(1115.5469160676003,2051.8709186911583)"/>
<path d="M0 0 C0.80251346 0.00291284 1.60502691 0.00582568 2.43185896 0.00882679 C3.27800872 0.00797237 4.12415848 0.00711794 4.99594915 0.00623763 C7.85350793 0.00458022 10.71100901 0.01010843 13.56856245 0.01555592 C15.60809287 0.01583776 17.64762339 0.01568012 19.68715376 0.01511341 C25.2427113 0.01482532 30.79824745 0.02072393 36.3538 0.02768737 C42.15275761 0.03391897 47.95171565 0.03452455 53.7506761 0.03571278 C64.7402222 0.03882667 75.72975841 0.04704083 86.71930015 0.05706227 C99.22694378 0.06822162 111.73458788 0.07373341 124.24223524 0.0787577 C149.97919156 0.0892234 175.71613431 0.10756959 201.45308393 0.12908131 C201.45308393 18.93908131 201.45308393 37.74908131 201.45308393 57.12908131 C152.28308393 57.12908131 103.11308393 57.12908131 52.45308393 57.12908131 C52.45308393 80.55908131 52.45308393 103.98908131 52.45308393 128.12908131 C94.03308393 128.12908131 135.61308393 128.12908131 178.45308393 128.12908131 C178.45308393 146.60908131 178.45308393 165.08908131 178.45308393 184.12908131 C177.45308393 185.12908131 177.45308393 185.12908131 175.37786478 185.25212914 C174.45699359 185.25120734 173.5361224 185.25028555 172.58734602 185.24933583 C171.5342021 185.25071049 170.48105818 185.25208515 169.3960008 185.25350147 C167.64813024 185.24810856 167.64813024 185.24810856 165.86494917 185.2426067 C164.03593565 185.24282574 164.03593565 185.24282574 162.16997236 185.2430492 C158.81680882 185.24247024 155.46370619 185.23744099 152.11055344 185.23047525 C148.60982831 185.22424114 145.10910245 185.22363787 141.60837263 185.22244984 C134.97498738 185.21933669 128.34161853 185.21112353 121.70824051 185.20110035 C113.41811334 185.18884462 105.12798352 185.18335663 96.83784956 185.17790943 C82.04291489 185.1681581 67.24801604 185.14812785 52.45308393 185.12908131 C52.45308393 207.56908131 52.45308393 230.00908131 52.45308393 253.12908131 C101.62308393 253.12908131 150.79308393 253.12908131 201.45308393 253.12908131 C201.45308393 271.93908131 201.45308393 290.74908131 201.45308393 310.12908131 C132.81308393 310.12908131 64.17308393 310.12908131 -6.54691607 310.12908131 C-6.58724742 232.62567219 -6.58724742 232.62567219 -6.59574419 200.33806568 C-6.59770221 192.94703376 -6.59972273 185.55600186 -6.60184771 178.16496998 C-6.60224333 176.77535924 -6.60224333 176.77535924 -6.60264695 175.35767555 C-6.60700197 160.38123602 -6.61488892 145.4048003 -6.62406886 130.42836303 C-6.63340451 115.07035991 -6.63897149 99.71235879 -6.64100456 84.35435295 C-6.64237998 74.86973278 -6.64673155 65.3851234 -6.65483253 55.90050655 C-6.6600989 49.40570889 -6.66172061 42.91091684 -6.66041745 36.4161172 C-6.65977389 32.66316708 -6.66079351 28.91023588 -6.66612154 25.15728909 C-6.67184242 21.09823707 -6.66991727 17.03922588 -6.66717058 12.98017079 C-6.67008343 11.7807806 -6.67299627 10.58139042 -6.67599738 9.34565508 C-6.67400633 8.2672948 -6.67201528 7.18893452 -6.6699639 6.07789665 C-6.67034362 5.13960772 -6.67072334 4.20131878 -6.67111456 3.23459685 C-6.41812751 -1.05424878 -3.64454847 0.01003587 0 0 Z " fill="#E8C857" transform="translate(306.54691606760025,2051.8709186911583)"/>
<path d="M0 0 C68.64 0 137.28 0 208 0 C208 18.48 208 36.96 208 56 C207 57 207 57 204.56558132 57.12304783 C203.47510022 57.12212604 202.38461912 57.12120424 201.26109314 57.12025452 C200.01442368 57.12162918 198.76775421 57.12300385 197.48330688 57.12442017 C196.08905006 57.12088056 194.69479347 57.11724574 193.30053711 57.11352539 C191.84228009 57.11324353 190.38402293 57.11340124 188.92576599 57.1139679 C184.95486515 57.1142559 180.98399425 57.10835877 177.01310039 57.10139394 C172.86774899 57.09516081 168.72239698 57.09455663 164.57704163 57.09336853 C156.72180673 57.09025509 148.86658568 57.08204154 141.01135689 57.07201904 C130.40040924 57.05877316 119.78945782 57.0533581 109.17850399 57.04751682 C92.45232561 57.03810165 75.72617646 57.01818282 59 57 C59 80.1 59 103.2 59 127 C100.25 127 141.5 127 184 127 C184 145.81 184 164.62 184 184 C142.75 184 101.5 184 59 184 C59 206.77 59 229.54 59 253 C108.17 253 157.34 253 208 253 C208 271.48 208 289.96 208 309 C206.21836916 310.78163084 203.82490663 310.1225503 201.45239353 310.12908077 C200.65010791 310.12616811 199.84782228 310.12325544 199.02122498 310.12025452 C198.1771257 310.12111053 197.33302643 310.12196655 196.46334839 310.12284851 C193.60371847 310.12451403 190.74414612 310.11896342 187.88452148 310.11352539 C185.81185184 310.11321931 183.73918209 310.11335212 181.66651249 310.11389065 C176.09530588 310.11411723 170.52412057 310.10830415 164.95291901 310.10128021 C159.73297556 310.09560258 154.51303741 310.09531804 149.29309082 310.09460449 C134.00789104 310.08934858 118.72269525 310.07538754 103.4375 310.0625 C69.303125 310.041875 35.16875 310.02125 0 310 C0 207.7 0 105.4 0 0 Z " fill="#E8C957" transform="translate(1161,2575)"/>
<path d="M0 0 C0.75313477 0.37979004 1.50626953 0.75958008 2.28222656 1.15087891 C10.07045801 5.11713825 17.63477163 9.28962276 25 14 C23.33075332 19.73803546 20.69145245 24.87911339 18 30.1875 C17.51668213 31.14696533 17.03336426 32.10643066 16.53540039 33.0949707 C13.22029619 39.65234932 9.85197893 46.18134485 6.4375 52.6875 C6.02048828 53.48244873 5.60347656 54.27739746 5.17382812 55.09643555 C4.78517578 55.831604 4.39652344 56.56677246 3.99609375 57.32421875 C3.65763428 57.96447998 3.3191748 58.60474121 2.97045898 59.2644043 C2.06105988 60.89079883 1.03361441 62.44957839 0 64 C-4.12005803 62.49341162 -7.72835219 60.48184664 -11.5 58.25 C-22.80664904 51.69746888 -34.449238 46.66768382 -47 43 C-48.63388672 42.51660156 -48.63388672 42.51660156 -50.30078125 42.0234375 C-71.72062292 36.73641776 -96.30085381 38.0416946 -115.9765625 48.0859375 C-121.85586218 51.80797476 -126.81674249 56.8616327 -128.76171875 63.6640625 C-130.51858751 72.3253136 -130.31561879 80.42246857 -125.875 88.25 C-112.84446122 106.71937236 -85.92546129 108.50480574 -65.47363281 112.96777344 C-14.12382299 124.17953391 -14.12382299 124.17953391 4 139 C4.69222656 139.51820313 5.38445313 140.03640625 6.09765625 140.5703125 C21.15482075 152.48433133 28.39123825 171.19117216 30.6875 189.75 C32.70014146 215.62082876 28.99047501 241.14404912 12.5625 261.9375 C-7.79431766 285.38078575 -37.9406986 294.94178592 -68 298 C-70.65000929 298.1210088 -73.27561823 298.20884738 -75.92578125 298.23828125 C-76.66261642 298.2480751 -77.3994516 298.25786896 -78.15861511 298.26795959 C-123.42274396 298.74438666 -168.36692339 289.5893039 -204 260 C-199.06848138 249.55296713 -193.27267765 239.62638936 -187.50732422 229.62548828 C-185.23056847 225.65978836 -182.98743734 221.67548065 -180.75 217.6875 C-180.36739014 217.0059082 -179.98478027 216.32431641 -179.59057617 215.62207031 C-178.72641321 214.08173773 -177.86309566 212.54093088 -177 211 C-176.28650391 211.49306641 -176.28650391 211.49306641 -175.55859375 211.99609375 C-141.85972727 234.89642843 -102.81385672 246.66105548 -62 239 C-49.31143074 235.92039392 -38.01844303 230.53459434 -30.91015625 219.2734375 C-27.44236678 212.01824663 -27.68912332 201.54437249 -29.87890625 193.953125 C-33.82480075 185.35810729 -40.11268267 180.80809254 -48.68334961 177.22802734 C-60.26649957 172.93923498 -72.6202484 171.08870339 -84.76126099 169.10714722 C-154.04128242 157.71144183 -154.04128242 157.71144183 -176.1875 128.64453125 C-190.04135021 108.43104721 -191.96874955 80.56870447 -187.875 56.9375 C-183.46302422 34.20772556 -171.30838552 14.63070594 -152.08935547 1.54418945 C-135.56597162 -9.32836966 -116.57933098 -14.99066532 -97 -17 C-95.98164063 -17.11085938 -94.96328125 -17.22171875 -93.9140625 -17.3359375 C-61.40185931 -20.36604208 -29.22488535 -14.74619501 0 0 Z " fill="#E8C957" transform="translate(2991,2067)"/>
<path d="M0 0 C-1.6713148 5.7456643 -4.31908179 10.89241552 -7.0078125 16.2109375 C-7.49329559 17.17907379 -7.97877869 18.14721008 -8.47897339 19.14468384 C-10.02389017 22.22336085 -11.57435956 25.29920251 -13.125 28.375 C-14.17614932 30.46726304 -15.2269347 32.55970896 -16.27734375 34.65234375 C-18.84734982 39.77035551 -21.42191525 44.88605337 -24 50 C-28.07243749 49.12713889 -31.0951083 47.15699785 -34.5625 44.9375 C-61.01452659 28.62405202 -92.56489291 21.75378176 -123.375 27.0625 C-130.83685006 28.86932749 -137.31999558 32.29879595 -144 36 C-144.74894531 36.31839844 -145.49789062 36.63679688 -146.26953125 36.96484375 C-148.50927633 38.30464611 -148.99191467 39.62698497 -150 42 C-150.70125 43.0725 -151.4025 44.145 -152.125 45.25 C-155.64146967 52.30937896 -154.90576428 61.42918955 -153.41015625 68.9765625 C-150.60405249 77.33021702 -144.07460382 82.50978423 -136.5625 86.6875 C-132.08104691 88.70360937 -127.54085943 90.09962942 -122.81640625 91.40234375 C-121.63680832 91.72847153 -121.63680832 91.72847153 -120.43338013 92.06118774 C-112.61184654 94.17752052 -104.71567259 95.81632109 -96.77151489 97.39581299 C-25.78298866 111.59008312 -25.78298866 111.59008312 -5.7421875 141.15234375 C7.32005197 162.5029549 9.38835124 189.83286634 4.0390625 214.0390625 C-1.43109468 235.97406652 -13.87132463 253.79904163 -33.06835938 265.85498047 C-53.36835953 277.88822121 -77.38852595 283.97668671 -100.92578125 284.23828125 C-101.66248047 284.24812042 -102.39917969 284.25795959 -103.15820312 284.26809692 C-148.7524256 284.75015511 -191.27509168 275.020876 -228 247 C-227.39849672 242.86271585 -226.01308835 239.83800274 -223.97265625 236.203125 C-223.03788452 234.52827026 -223.03788452 234.52827026 -222.08422852 232.81958008 C-221.41058932 231.62956699 -220.73667487 230.43970969 -220.0625 229.25 C-219.38103019 228.03627529 -218.69996102 226.82232554 -218.01928711 225.6081543 C-212.8059433 216.33127393 -207.47116907 207.12719734 -202 198 C-197.82578039 199.47098883 -194.52176481 201.57127633 -190.875 204.0625 C-159.87986832 224.41720191 -121.78800557 231.46644427 -85.45361328 224.5390625 C-73.89887342 222.00046891 -63.28075279 216.92112919 -56.5390625 206.80859375 C-52.17563512 198.15910472 -52.05306177 188.11457397 -55 179 C-59.42992385 170.31053399 -66.90331829 165.34122802 -75.90234375 162.1796875 C-89.64276726 158.01634264 -104.07348464 155.96600323 -118.1875 153.5 C-148.89438311 148.12314496 -181.37110679 141.78301362 -201 115 C-207.27876036 105.01816631 -210.79335655 94.51791349 -213 83 C-213.15082031 82.21753906 -213.30164063 81.43507813 -213.45703125 80.62890625 C-213.78211344 78.40534406 -213.9175428 76.24695867 -214 74 C-214.0515625 72.74445312 -214.103125 71.48890625 -214.15625 70.1953125 C-214.60165607 53.8003032 -213.21860669 36.92627888 -206 22 C-205.47277344 20.90300781 -204.94554687 19.80601562 -204.40234375 18.67578125 C-193.26202023 -3.17346375 -174.36945853 -16.81812134 -151.5 -24.75 C-99.77333751 -40.94777419 -44.54499046 -29.69666031 0 0 Z " fill="#E8C957" transform="translate(246,2081)"/>
<path d="M0 0 C19.47 0 38.94 0 59 0 C59.01458252 6.1565625 59.02916504 12.313125 59.04418945 18.65625 C59.09457489 39.02028349 59.1610283 59.38424129 59.23571491 79.74819946 C59.28059693 92.09221541 59.32002902 104.436203 59.34643555 116.78027344 C59.36947722 127.54483475 59.40294384 138.30930573 59.44870156 149.07379532 C59.47255073 154.76852997 59.49133381 160.46317561 59.49761391 166.15795898 C59.50370249 171.52926991 59.52383729 176.90035336 59.55427551 182.27157974 C59.56299565 184.23216288 59.56679098 186.19277582 59.56500816 188.15337753 C59.55344473 206.75464807 60.48635381 225.81803183 73.5625 240.4375 C84.67396942 250.48970483 98.31088299 253.39253731 112.8125 253.3125 C113.87621826 253.30686035 114.93993652 253.3012207 116.03588867 253.29541016 C130.28196222 253.07467633 143.71289378 249.52090408 154 239 C167.34661354 221.1555189 167.29539744 201.06534973 167.31884766 179.71069336 C167.32817069 177.73776347 167.33834278 175.76483744 167.34928894 173.79191589 C167.37633561 168.49144687 167.39166223 163.19100403 167.40471697 157.89048457 C167.42045971 152.33048839 167.44721374 146.77054483 167.4727478 141.21058655 C167.51933988 130.70679677 167.55617807 120.20299688 167.58942068 109.6991573 C167.62778122 97.73039697 167.6771544 85.76168975 167.72740483 73.79297435 C167.83043326 49.19535076 167.91833409 24.59770444 168 0 C187.14 0 206.28 0 226 0 C226.09053677 27.78295034 226.1641192 55.56577995 226.20724869 83.34884071 C226.22781291 96.2510064 226.25581527 109.15307344 226.30175781 122.05517578 C226.34181445 133.30976285 226.36747734 144.56427842 226.37635398 155.8189348 C226.38153702 161.76991979 226.39358904 167.72070038 226.42292023 173.67161942 C226.45038779 179.29079428 226.45838271 184.90968359 226.45243073 190.52891922 C226.45351712 192.57409221 226.46128192 194.61927633 226.4768219 196.66439056 C226.70991875 228.96825523 219.10887632 260.32255342 196 284 C175.07313378 304.25743935 147.50427189 311.89971447 119 313 C117.59814453 313.061875 117.59814453 313.061875 116.16796875 313.125 C87.60263636 313.76422422 59.98286288 307.3233329 37 290 C35.8553125 289.15888672 35.8553125 289.15888672 34.6875 288.30078125 C23.17814094 279.08865313 15.91209407 266.21984215 10 253 C9.59136719 252.12988281 9.18273438 251.25976562 8.76171875 250.36328125 C0.05635212 230.56613474 -0.3103251 208.10199556 -0.22705078 186.86279297 C-0.22648509 184.81090297 -0.22680631 182.75901257 -0.22793579 180.7071228 C-0.22850413 175.19593134 -0.21683487 169.68482887 -0.20278788 164.17365789 C-0.19019301 158.39215401 -0.18910317 152.61064757 -0.18673706 146.82913208 C-0.18054782 135.90742778 -0.16417197 124.98576403 -0.14403808 114.0640775 C-0.12159903 101.61892068 -0.11066561 89.17376182 -0.10064721 76.72858977 C-0.07980319 51.15236559 -0.04315929 25.57619693 0 0 Z " fill="#E9CA58" transform="translate(1876,2575)"/>
<path d="M0 0 C17.64751308 -0.09392519 35.29494687 -0.16421306 52.94265366 -0.20724869 C61.13893803 -0.22777233 69.33506606 -0.25569472 77.53125 -0.30175781 C84.68472863 -0.34194127 91.83809391 -0.36750665 98.99168229 -0.37635398 C102.77071837 -0.38151615 106.5494305 -0.39342871 110.32836151 -0.42292023 C143.6903011 -0.67288949 173.03601159 3.86501086 198 28 C216.91318413 47.90190033 222.99926199 74.27901658 222.34375 100.9921875 C221.38060013 122.50482772 214.35695652 141.22864463 201 158 C200.20078125 159.01707031 199.4015625 160.03414062 198.578125 161.08203125 C195.91170756 164.09993099 193.07839514 166.58889937 189.875 169 C189.02240601 169.64618286 189.02240601 169.64618286 188.15258789 170.30541992 C183.04083227 174.10233702 177.74844636 177.24966575 172 180 C170.65421875 180.65935547 170.65421875 180.65935547 169.28125 181.33203125 C163.35666487 184.02576432 157.38578477 185.8027341 151.0625 187.25 C150.35988037 187.41322754 149.65726074 187.57645508 148.93334961 187.74462891 C136.93283649 190.30593856 124.62790201 190.14204108 112.41796875 190.09765625 C111.04121949 190.09618096 109.66446966 190.09516388 108.28771973 190.09460449 C103.25430445 190.08941959 98.22090127 190.07545879 93.1875 190.0625 C81.905625 190.041875 70.62375 190.02125 59 190 C59 229.6 59 269.2 59 310 C39.86 310 20.72 310 1 310 C0 309 0 309 -0.1241985 306.89448446 C-0.12381878 305.95619552 -0.12343906 305.01790659 -0.12304783 304.05118465 C-0.12503888 302.97282437 -0.12702993 301.89446409 -0.12908131 300.78342623 C-0.12616847 299.58403604 -0.12325563 298.38464586 -0.12025452 297.14891052 C-0.12110894 295.88623842 -0.12196337 294.62356631 -0.12284368 293.32263142 C-0.12509102 289.80179314 -0.12106413 286.28098499 -0.11606562 282.76015055 C-0.1117647 278.96940332 -0.11320729 275.17865792 -0.1139679 271.38790894 C-0.11449336 264.81484509 -0.11134423 258.24179114 -0.10573006 251.66872978 C-0.09761808 242.16507644 -0.09500015 232.6614279 -0.09374207 223.15777148 C-0.09155107 207.74035079 -0.0848897 192.32293539 -0.07543945 176.90551758 C-0.06626657 161.9250491 -0.05918513 146.94458205 -0.05493164 131.96411133 C-0.05466892 131.04139242 -0.05440619 130.11867351 -0.05413551 129.16799342 C-0.05283051 124.53918604 -0.05156679 119.91037866 -0.05032361 115.28157127 C-0.03994951 76.85437715 -0.0223299 38.42718892 0 0 Z M59 57 C59 82.08 59 107.16 59 133 C76.4178125 133.12375 76.4178125 133.12375 94.1875 133.25 C97.8280542 133.28641602 101.4686084 133.32283203 105.21948242 133.36035156 C108.53768935 133.37374497 108.53768935 133.37374497 111.85591125 133.3817749 C113.31205666 133.38784065 114.76818445 133.40174607 116.22419739 133.42230225 C127.7569279 133.57671095 140.65198734 133.31799799 149.5 124.875 C157.98437518 116.48703817 161.0040971 106.48995901 161.375 94.8125 C161.18036532 83.30615567 158.39630828 73.18186426 150 65 C142.70217744 59.00674395 135.82011451 56.74091024 126.32055664 56.77294922 C125.57629897 56.77270815 124.8320413 56.77246708 124.06523037 56.7722187 C121.68007973 56.77369951 119.29525023 56.78887492 116.91015625 56.8046875 C115.42802073 56.80763177 113.94588313 56.80966984 112.46374512 56.81079102 C106.99663149 56.82123386 101.52956252 56.84915641 96.0625 56.875 C83.831875 56.91625 71.60125 56.9575 59 57 Z " fill="#E8C957" transform="translate(610,2575)"/>
<path d="M0 0 C18.80566937 17.24622488 30.77649803 39.83359084 37.35253906 64.32910156 C37.55588867 65.08553955 37.75923828 65.84197754 37.96875 66.62133789 C39.40315478 72.31110209 39.8801255 77.41746598 40.47753906 83.39160156 C20.67753906 83.39160156 0.87753906 83.39160156 -19.52246094 83.39160156 C-22.52246094 75.39160156 -22.52246094 75.39160156 -23.59277344 72.22363281 C-28.40978906 58.4326955 -36.2764465 46.50180126 -49.64746094 39.83300781 C-64.2411307 33.51981489 -78.69012186 34.18646394 -93.52246094 39.39160156 C-106.16982188 45.46910469 -112.57357167 54.5118 -117.52246094 67.39160156 C-120.41467486 76.58884182 -120.67294786 86.45482358 -120.66772461 96.02539062 C-120.67108322 96.930952 -120.67444183 97.83651337 -120.67790222 98.76951599 C-120.68731936 101.73210054 -120.68935066 104.69462802 -120.69042969 107.65722656 C-120.69364874 109.73931907 -120.69701329 111.82141136 -120.70051575 113.90350342 C-120.70648399 118.25745162 -120.70835803 122.61138003 -120.70776367 126.96533203 C-120.7076622 132.51044037 -120.7213098 138.05542025 -120.73853588 143.6004982 C-120.74972202 147.89880949 -120.75168086 152.19709038 -120.75115395 156.49541473 C-120.75232429 158.53808789 -120.75669212 160.58076209 -120.76448631 162.62342072 C-120.83695043 183.57527755 -120.24778471 203.95505515 -105.20996094 220.14160156 C-94.97425735 229.796239 -82.21717135 231.91991869 -68.60107422 231.80883789 C-55.33357048 231.38968315 -44.78301597 226.90396775 -35.49511719 217.29394531 C-27.38328351 207.51359442 -24.01137587 196.60280382 -20.52246094 184.39160156 C-0.39246094 184.39160156 19.73753906 184.39160156 40.47753906 184.39160156 C37.05796714 215.16774886 23.06528561 246.71301043 -0.52246094 267.39160156 C-4.08267797 270.22930396 -7.74325389 272.85421077 -11.52246094 275.39160156 C-12.33585938 275.93816406 -13.14925781 276.48472656 -13.98730469 277.04785156 C-25.21322918 284.18004346 -37.6892075 287.49560189 -50.52246094 290.39160156 C-51.28631104 290.56812256 -52.05016113 290.74464355 -52.8371582 290.92651367 C-81.90652782 295.96125766 -116.50490794 289.54911339 -140.78027344 272.67773438 C-163.37341074 255.998832 -176.2465158 230.84777477 -180.83496094 203.51660156 C-182.52029151 189.37036041 -182.68536471 175.33196564 -182.69042969 161.10644531 C-182.69365253 158.95715819 -182.69701733 156.80787128 -182.70051575 154.65858459 C-182.70647256 150.16960137 -182.70835927 145.68063729 -182.70776367 141.19165039 C-182.70766238 135.49937571 -182.72129641 129.80722668 -182.73853588 124.11498165 C-182.74977215 119.67828328 -182.75167933 115.24161415 -182.75115395 110.80490303 C-182.75231734 108.70940278 -182.75664418 106.61390135 -182.76448631 104.51841545 C-182.82314463 87.22362814 -182.64084718 69.43774092 -178.33496094 52.57910156 C-178.12137939 51.72002197 -177.90779785 50.86094238 -177.68774414 49.97583008 C-171.00881837 24.46048694 -154.82230286 2.66858459 -131.99511719 -10.76074219 C-91.92995039 -32.07775444 -34.95661757 -30.678513 0 0 Z " fill="#E8C957" transform="translate(736.5224609375,2073.6083984375)"/>
<path d="M0 0 C74.91 0 149.82 0 227 0 C227 18.81 227 37.62 227 57 C199.28 57 171.56 57 143 57 C143 140.49 143 223.98 143 310 C123.53 310 104.06 310 84 310 C84 226.51 84 143.02 84 57 C56.28 57 28.56 57 0 57 C0 38.19 0 19.38 0 0 Z " fill="#E8C957" transform="translate(1336,2052)"/>
<path d="M0 0 C20.13 0 40.26 0 61 0 C61 102.3 61 204.6 61 310 C41.2 310 21.4 310 1 310 C0 309 0 309 -0.1241985 306.89448446 C-0.12381878 305.95619552 -0.12343906 305.01790659 -0.12304783 304.05118465 C-0.12503888 302.97282437 -0.12702993 301.89446409 -0.12908131 300.78342623 C-0.12616847 299.58403604 -0.12325563 298.38464586 -0.12025452 297.14891052 C-0.12110894 295.88623842 -0.12196337 294.62356631 -0.12284368 293.32263142 C-0.12509102 289.80179314 -0.12106413 286.28098499 -0.11606562 282.76015055 C-0.1117647 278.96940332 -0.11320729 275.17865792 -0.1139679 271.38790894 C-0.11449336 264.81484509 -0.11134423 258.24179114 -0.10573006 251.66872978 C-0.09761808 242.16507644 -0.09500015 232.6614279 -0.09374207 223.15777148 C-0.09155107 207.74035079 -0.0848897 192.32293539 -0.07543945 176.90551758 C-0.06626657 161.9250491 -0.05918513 146.94458205 -0.05493164 131.96411133 C-0.05466892 131.04139242 -0.05440619 130.11867351 -0.05413551 129.16799342 C-0.05283051 124.53918604 -0.05156679 119.91037866 -0.05032361 115.28157127 C-0.03994951 76.85437616 -0.02151041 38.42719081 0 0 Z " fill="#E8C957" transform="translate(1756,2575)"/>
<path d="M0 0 C0.63550781 0.45246094 1.27101563 0.90492188 1.92578125 1.37109375 C11.31226937 8.71794587 16.41324277 19.19844362 18.75 30.6875 C19.87089114 45.53930764 16.31203812 58.224917 7 70 C-0.94048332 78.53383812 -11.56101015 84.53398135 -23.25390625 85.1796875 C-38.30553772 85.47195219 -49.9530559 82.2939933 -61.21875 71.859375 C-64.15006081 68.79949793 -66.62511457 65.5025826 -69 62 C-69.556875 61.195625 -70.11375 60.39125 -70.6875 59.5625 C-74.27312731 52.56198954 -75.53334594 45.94814224 -75.4375 38.125 C-75.42920166 37.24730957 -75.42090332 36.36961914 -75.41235352 35.46533203 C-75.05428108 21.70056875 -69.07753948 11.58070861 -59.1875 2.1875 C-42.20503851 -12.39834704 -18.21096046 -13.11833789 0 0 Z " fill="#041600" transform="translate(1747,932)"/>
<path d="M0 0 C0.66 0.33 1.32 0.66 2 1 C-2.62 5.62 -7.24 10.24 -12 15 C-12.66 14.67 -13.32 14.34 -14 14 C-12.60919892 12.41224451 -11.21211596 10.82999061 -9.8125 9.25 C-8.64654297 7.92742188 -8.64654297 7.92742188 -7.45703125 6.578125 C-5.11544754 4.12113732 -2.69841735 2.05137234 0 0 Z " fill="#AF9C41" transform="translate(2834,2072)"/>
<path d="M0 0 C0.66 0.33 1.32 0.66 2 1 C-2.95 5.95 -7.9 10.9 -13 16 C-13 11.92412524 -11.74008328 11.01409161 -9 8 C-6.38537946 5.60368758 -3.70031809 3.29866895 -1 1 C-0.67 0.67 -0.34 0.34 0 0 Z " fill="#BCA746" transform="translate(64,2072)"/>
</svg>
